<svg xmlns="http://www.w3.org/2000/svg" viewBox="0 0 64 64" role="img" aria-label="Congrats Seller">
  <defs>
    <linearGradient id="g" x1="0" x2="1" y1="1" y2="0">
      <stop offset="0" stop-color="#0ea5e9"/>
      <stop offset="1" stop-color="#6366f1"/>
    </linearGradient>
  </defs>
  <rect width="64" height="64" rx="14" fill="url(#g)"/>
  <path fill="white" d="M18 32c0-7.7 6.3-14 14-14 3.3 0 6 2.7 6 6h-4c0-1.1-.9-2-2-2-5.5 0-10 4.5-10 10s4.5 10 10 10c1.1 0 2-.9 2-2h4c0 3.3-2.7 6-6 6-7.7 0-14-6.3-14-14Z"/>
  <path fill="white" d="M45.5 20c1.4 0 2.5 1.1 2.5 2.5S46.9 25 45.5 25 43 23.9 43 22.5 44.1 20 45.5 20Zm-2.5 7h5v17h-5V27Z"/>
</svg>
